# xmcd
#
# Track frame offsets: 
#        150
#        13457
#        30599
#        49397
#        64465
#        84727
#        101189
#        118451
#        136441
#        150583
#        168940
#        185776
#
# Disc length: 2680 seconds
#
# Revision: 0
# Processed by: cddbd v1.5.2PL0 Copyright (c) Steve Scherf et al.
# Submitted via: ExactAudioCopy v1.3
#
DISCID=b60a760c
DTITLE=Cody Jinks - The Wanting
DYEAR=2019
DGENRE=Country
TTITLE0=The Wanting
TTITLE1=Same Kind of Crazy as Me
TTITLE2=Never Alone Always Lonely
TTITLE3=Whiskey
TTITLE4=Where Even Angels Fear to Fly
TTITLE5=Which One I Feed
TTITLE6=A Bite of Something Sweet
TTITLE7=The Plea
TTITLE8=It Don’t Rain in California
TTITLE9=Wounded Mind
TTITLE10=Ramble
TTITLE11=The Raven and the Dove
EXTD=
EXTT0=
EXTT1=
EXTT2=
EXTT3=
EXTT4=
EXTT5=
EXTT6=
EXTT7=
EXTT8=
EXTT9=
EXTT10=
EXTT11=
PLAYORDER=
